<svg id="Capa_1" data-name="Capa 1" xmlns="http://www.w3.org/2000/svg" viewBox="0 0 1280 100"><defs><style>.cls-1{fill:#1d1d1b;}.cls-2{fill:#562223;}.cls-3{fill:#234854;}.cls-4{fill:#225125;}.cls-5{fill:#61618f;}</style></defs><title>foto</title><path class="cls-1" d="M5,100.41q47.57-13.32,95.34-25.9c30-7.89,60.71-18.14,90.74-4.64,12.37,5.56,23.65,13.2,35.87,19.06,10.33,5,21.94,9.71,33.64,8.78,11-.87,21.21-6.14,31-10.82,12.73-6.1,25-13.13,37.86-18.92,11.63-5.22,26.88-12,39.88-9.11,10.17,2.24,18.07,9.93,24.52,17.67,6.79,8.16,12.69,17.2,18.71,25.94,3.8,5.51,7.26,14.33,13.81,17.1,6.39,2.7,11.49-6.28,14.39-10.6,2.59-3.84,4.89-7.85,7.46-11.7,3-4.56,7.32-8.32,11.42-11.91C469.4,76.75,481,67.76,494,65c11.56-2.43,23.53-2.08,35.27-2.56,28.55-1.18,58.07-8.58,86.18.07,14,4.3,23.56,13.43,31.77,25.14,7.06,10.08,13.42,20.67,22.94,28.7a2.58,2.58,0,0,0,3.53,0c9-7.5,13-21.12,17.52-31.53,7.37-17.09,14.87-34.21,22.58-51.15,7.78-17.1,16.52-34.6,28.71-49C754.19-29.18,772.6-40,791-34c8.43,2.74,16,8.07,23.28,12.92q13.55,9,26.25,19.12a494.88,494.88,0,0,1,44.28,40.5,875,875,0,0,1,81.45,96.89q21.33,29.26,40.88,59.77c12.72,19.77,27.41,39,37.36,60.36l4.32-2.52c-6-9.86-7.31-21.87-10.14-32.87-3.66-14.26-8.06-28.35-12-42.54q-12.41-44.62-23.58-89.59c-.76-3.12-5.59-1.8-4.82,1.33,7.55,30.65,15.66,61.15,24.12,91.55,3.94,14.15,8.49,28.22,11.93,42.5,2.62,10.84,4.25,22.47,10.17,32.14,1.71,2.79,5.66.36,4.32-2.52-9.32-20-23-37.84-34.81-56.38q-17.61-27.58-36.59-54.27C952.15,107,924.81,73.09,894.73,41.6A530.06,530.06,0,0,0,848.33-2c-14.93-12.29-31.07-25.11-48.51-33.67-16.15-7.93-33.39-5.49-48,4.85C738-21,728.45-5.52,720.41,9.14,709,29.94,700.7,52.22,690.86,73.76c-2.88,6.33-5.59,12.72-8.45,19-3.06,6.79-6.36,15.12-12.21,20h3.53c-17.34-14.63-24.37-38.64-44.79-50.07-22.56-12.63-51.33-9.78-76-7.37-11.81,1.16-23.49,2-35.34,2.43-11.24.37-23.44.63-33.93,5.13-11.57,5-22.48,13.8-31.53,22.42-7,6.61-11.08,14.28-16.47,22.1-1.61,2.35-5,8.6-8.21,7-3.65-1.77-6.34-7.67-8.37-10.94-4.8-7.7-10.2-15.17-15.55-22.51-6-8.16-12.53-16.27-21.09-21.85-8.78-5.72-18.25-6.8-28.37-4.83-27.92,5.44-51.71,23.18-77.62,33.91-11.72,4.85-22.36,5.66-34.47,1.53-13.46-4.6-25.44-12.23-37.89-19-13.56-7.33-27.06-12.35-42.61-12.76-17.55-.45-33.8,4.08-50.6,8.46q-53.77,14-107.29,29c-3.09.87-1.78,5.69,1.33,4.82Z"/><path class="cls-2" d="M22.81,100.41c31.76-8.93,63.64-17.64,96.62-20.58,32.07-2.85,65.51-10.68,97.32-2,14.19,3.86,27,11.59,41.2,15.31s29.46,2.76,44,.6c30.77-4.57,59.73-17.16,87.18-31.31,6.78-3.49,13.26-7.26,19.81-11.13,2.6-1.54,6.14-3.85,9.31-3.33s4.45,4.76,5.52,7.43c2.34,5.79,4.61,10.65,8.56,15.62,5.21,6.55,11.42,12.2,17.37,18.07,2.29,2.27,5.83-1.27,3.54-3.53-5.35-5.28-11-10.37-15.79-16.14-4.4-5.26-6.76-10.3-9.32-16.51-1.53-3.72-3.23-8.08-7.36-9.51-4.7-1.62-9.76.92-13.77,3.23C379.7,62.32,351.32,76.75,320.7,84.74c-15.79,4.12-32.62,6.82-49,5.64-15.38-1.11-28.94-8.29-43-13.87-31.31-12.41-65-6.39-97.34-2.84-18.19,2-36.17,3.78-54.1,7.56-18.8,4-37.3,9.16-55.78,14.36-3.09.87-1.78,5.69,1.33,4.82Z"/><path class="cls-2" d="M461.38,96.84C498.69,85.08,534.19,68.52,569.57,52c7.89-3.68,15.94-7.12,23.64-11.19,6.31-3.33,12.52-6.95,19.24-9.39s14.74-4,21.07.47c5.89,4.2,10.07,10.79,13.75,16.88,4.38,7.27,8.09,14.9,12.27,22.28,5,8.82,11.71,16.83,14.81,26.6.69,2.17,4.35,2.58,4.82,0,6.38-35.34,13.34-70.58,21.39-105.58,7.94-34.51,17.84-68.34,27.19-102.46,4.5-16.45,8.48-33.47,17.26-48.28l-4.65-1.26c3.08,82.41,44.42,155.56,68.3,232.8,2.49,8.07,4.72,15.55,9.91,22.37a81,81,0,0,0,15.68,15c6.5,5,13.4,9.37,20.07,14.08,8.79,6.21,17.1,13.13,25.48,19.87,8.61,6.94,17.48,13.67,25.82,20.94,3.49,3,11.7,11.41,16.93,7.21,2-1.64,3.27-5.85,4.08-8.23a56.52,56.52,0,0,0,2.45-11.8c1-8.46.59-17,.43-25.46q-.72-36.61-2.42-73.13c-.57-12.15-2.39-24.28-1.93-36.46.48-12.75,5.07-24.64,9.39-36.48,1.11-3-3.72-4.33-4.82-1.33-2.93,8-6,16-7.85,24.4a92.69,92.69,0,0,0-1.59,24.6c.86,17.12,2.2,34.21,3,51.34.74,16.36.93,32.7,1.3,49.07.3,13.29,1.53,28.74-5.93,40.45l2.16-1.24c-5.74.55-10.45-5.57-14.56-8.92q-9.13-7.43-18.31-14.8c-10-8.11-20-16.46-30.5-23.95-8.55-6.08-17.58-11.57-25.52-18.47A54.68,54.68,0,0,1,814.5,74.87c-15.16-50.23-37.79-97.83-53.18-148-8.67-28.24-14.86-57.24-16-86.83a2.52,2.52,0,0,0-4.66-1.26c-7.5,12.63-11.61,26.9-15.46,41-4.47,16.33-9.4,32.52-13.89,48.84-9.68,35.26-18,70.89-25.3,106.71q-6.24,30.42-11.7,61h4.82c-2.88-9.09-8.63-16.6-13.49-24.67-4-6.61-7.36-13.58-11.14-20.31C648.19,40,639.64,24.58,625,24c-14.22-.56-27,9.18-39.25,15-19,9-38,17.85-57.15,26.41-22.4,10-45.13,19.25-68.53,26.63-3.06,1-1.75,5.79,1.33,4.82Z"/><path class="cls-3" d="M15,89.7c28.72-9,58.51-11,88.41-12,30.05-1,60.19-1.06,90.16,1.61,30.44,2.72,60.85,8,91.08,12.47,10.95,1.63,23.74,6.87,34.74,3.65,8.56-2.51,14.76-9.61,19.35-16.91,6.18-9.81,10.61-21.09,14.64-31.93a171.09,171.09,0,0,0,6.57-20.47c1.12-4.83,1.89-11.41,5.89-14.8l-3.93-.51c26.92,41.7,53.65,83.54,82.66,123.82a2.59,2.59,0,0,0,3.42.9c13.76-6.43,25.5-16.59,38.94-23.72,15-8,30.79-15.34,47.08-20.38a226,226,0,0,1,49.41-9.11c5.92-.44,11,.42,15.85,3.9,6.62,4.72,12.42,10.92,18.13,16.66a208.12,208.12,0,0,1,16.88,18.64c3.26,4.17,7,8.77,12.73,9a2.51,2.51,0,0,0,2.41-1.83C656,81,659.81,33.05,666.11-14.64c3.18-24,6.94-48,12.26-71.64,5.08-22.62,11.44-44.93,17.33-67.35,6.65-25.3,12.66-50.79,15.69-76.8.22-2-2.27-3-3.77-2.16-8.19,4.69-10.89,14.22-12.94,22.83-2.63,11-4.86,21.86-5.34,33.23-1.1,25.63,3.34,51.23,7.72,76.38a650.42,650.42,0,0,0,20.32,83q6.6,21,14.29,41.73c4.88,13.19,10.79,25.93,15.88,39a145.34,145.34,0,0,1,6.13,18.95c1.25,5.27,2.41,10.23,5.05,15,4.66,8.5,12,15.22,19.54,21.09,8.07,6.25,16.77,11.64,25,17.67,11.61,8.5,22.9,17.55,34.05,26.65,4.14,3.38,8.12,6.79,12,10.49,3.05,2.93,6.62,6.65,10.77,8,8.86,2.85,15.22-5.33,18.79-12.39,4.54-9,6.46-18.94,9-28.56,3.49-13,7.4-25.86,10.55-39C906.05,70,911.76,38,919.16,6.35c7.65-32.74,17-65,27.54-97,1-3.06-3.82-4.38-4.82-1.33-8.72,26.42-16.62,53.1-23.43,80.08-6.72,26.63-12,53.56-17.72,80.42-2.78,13.09-5.67,26.16-8.93,39.15-2.92,11.62-6.57,23-9.53,34.64C879.8,152,877.8,162.71,872,171c-2.88,4.09-6.68,7.76-11.78,5.07-4.13-2.18-7.31-6.19-10.69-9.33-9.44-8.78-20.09-16.49-30.27-24.38-8.42-6.53-16.9-12.82-25.69-18.84-8.15-5.57-16.35-11.26-23.13-18.49A48.44,48.44,0,0,1,762.44,94c-2.73-5.39-3.46-11.29-5.08-17-3.45-12.22-8.77-23.78-13.71-35.43-5.28-12.47-9.84-25.25-14.24-38A700.42,700.42,0,0,1,706.84-75.9c-6-27.36-11.17-55.61-12.43-83.62-.61-13.51-.15-27.22,3-40.42,2.27-9.36,3.48-23.06,12.7-28.33l-3.76-2.16c-5.42,46.49-20.68,91-31.36,136.37-10.82,46-15.92,93.08-20.94,140-2.91,27.18-5.76,54.38-9.54,81.46l2.41-1.84c-5.56-.21-9.61-8.35-12.72-12.12C629,107,622.73,101.08,616.77,95.27c-8.55-8.32-17.21-18.07-30-18.09-7.54,0-15.25,1.45-22.69,2.57a233.52,233.52,0,0,0-25.27,5.09c-16.28,4.34-32,11.31-47,18.82A206,206,0,0,0,468.2,117c-7.42,5-14.64,10.38-22.78,14.18l3.42.9C419.83,91.82,393.1,50,366.18,8.29a2.54,2.54,0,0,0-3.93-.51c-6.22,5.28-6.48,15.59-8.76,22.88a270.16,270.16,0,0,1-13.56,35c-4.14,8.72-9.39,18.66-18.24,23.39-5.52,2.94-11.38,2.44-17.34,1.33-6.79-1.26-13.47-2.73-20.31-3.74-28.77-4.27-57.66-9.19-86.61-12-29.3-2.85-58.79-3-88.19-2.16C77,73.44,44.63,75.15,13.62,84.88c-3.06,1-1.75,5.78,1.33,4.82Z"/><path class="cls-4" d="M2.87,91.4C9.19,79.56,21,72.06,32.45,65.7A213.13,213.13,0,0,1,73.5,48.14c13.92-4.28,29.56-8.42,44.23-7,15,1.45,29.11,7.93,43.94,10.57,31.88,5.66,62.93,14.37,94,23.43,15.36,4.49,30.72,9,46.2,13,8.74,2.27,18.6,5.49,25.5-2.29,4.26-4.81,6.87-11.28,9.38-17.1,3.32-7.72,6.1-15.66,8.65-23.67,2.61-8.24,5.26-16.52,7.39-24.9C354.84,12,356.41,3.72,359-4.31l-4.57.59C369.53,21.45,385.68,46,402,70.37c7.94,11.9,15.95,23.76,23.83,35.7q5.79,8.76,11.3,17.7c2.8,4.53,5,9.13,10.54,10.53,4.08,1,7.82-.54,10.87-3.25,4.7-4.17,9.66-8,14.45-12.14,10-8.57,19.24-18,28.52-27.34s18.59-18,28.22-26.73c3.73-3.37,7.58-7.21,12.85-7.71,6.26-.59,13.74,3,19.21,5.63,11.89,5.8,22.44,13.91,33.76,20.66a111.12,111.12,0,0,0,15.88,8c7.28,2.88,14.07,6.48,21.11,9.89a2.55,2.55,0,0,0,3-.39c7.7-9.21,10.93-21.73,14.65-32.93,4.56-13.75,8.37-27.75,11.64-41.86,6.53-28.27,11-57.12,11.23-86.18,0-1.49-1.63-3-3.16-2.41-10.19,4-13.71,16.7-15.83,26.35-2.56,11.66-4.24,24.49-3.42,36.44,1.28,18.83,9.41,36.09,17.58,52.79,9.36,19.11,19.27,37.92,29.2,56.73,3.75,7.09,6.55,15.11,10.86,21.85,3.13,4.9,7.73,7.18,13.47,7.56,12.28.82,25-4.86,36-9.82,32.81-14.84,58.78-41.21,84-66.17,15.93-15.77,31.76-31.55,46.44-48.51C895,6.92,902.06-1,907.92-9.48c4.84-7,8.12-16.37,15.12-21.66l-3.67-1.49c9.22,41,20.23,81.68,36.46,120.53,1,2.32,5.25,2.43,4.91-.66-2-18.13-8.21-35.29-11.8-53.08-2-9.78-2.64-19.84-4.3-29.68a152,152,0,0,0-3.85-17.92c-1.17-4-2.56-8.44-5.62-11.39-9.75-9.42-26,1.62-35.75,5.62C859.76-2.94,819,12.51,777.45,23.26S693,38.53,650.21,41.8c-87.12,6.66-174.65,1.9-261.73,9.55A1064.38,1064.38,0,0,0,265.62,69.06C245.2,73.29,224.93,78.21,204.89,84c-10.6,3-21.06,6.52-31.55,9.94l-15.28,5c-5.25,1.7-11.28,2.89-16.24,5.28-3.76,1.82-7.14,4.53-10.9,6.43a71.89,71.89,0,0,1-14.68,5.49,70.83,70.83,0,0,1-28.63,1.08c-5.67-.92-8.91-3.84-13.28-7.37L61.26,99.25c-8.6-6.94-18.21-13.42-26.15-21.1-7.25-7-13.32-16.1-19.49-24.08Q6.17,41.86-2.74,29.24-20.45,4.13-36-22.44-43.61-35.55-50.7-49c-1.51-2.84-5.82-.32-4.32,2.53a717.84,717.84,0,0,0,66,102.57Q19.85,67.67,29.2,78.86c6.73,8,16.52,14.24,24.68,20.82l12.3,9.93c4.12,3.32,8.44,8,13.08,10.56,6.45,3.47,17,3.24,24.16,2.86a74.3,74.3,0,0,0,24.91-5.76,82.64,82.64,0,0,0,11-5.66c5.41-3.33,11.14-5,17.15-7,20.36-6.63,40.63-13.49,61.3-19.08a927.76,927.76,0,0,1,123-24c41.58-5.39,83.41-8.37,125.31-9.59,43.81-1.27,87.64-1,131.44-2.37,22.22-.72,44.44-1.89,66.59-3.93,20.67-1.91,41.45-3.73,62-6.81,41.66-6.26,81.38-18.57,121-32.66,19.4-6.91,38.89-14,57.78-22.25,6.45-2.82,13.07-7,20.3-7.23,6.67-.22,8.85,4.86,10.53,10.29,3.63,11.7,5.09,24.14,6.67,36.25S947,47.16,950,59.15c2.38,9.25,4.68,18.58,5.71,28.09l4.92-.67C944.43,47.72,933.41,7.05,924.19-34a2.51,2.51,0,0,0-3.67-1.49c-5,3.74-8.24,9.06-11.38,14.33a157.3,157.3,0,0,1-13.5,19.25c-12,14.71-24.72,28.77-38,42.31-23.83,24.28-48,49.91-76,69.42A164.38,164.38,0,0,1,743.08,130c-6,2.17-12.48,4.16-19,4.26-8,.13-11.27-3.88-14.41-10.71-7.62-16.59-16.63-32.51-25-48.74-8.58-16.65-17.85-33.53-24-51.27C655.32,7.9,654.85-7.57,657-23.79a106.25,106.25,0,0,1,4.22-19.58c1.74-5.22,4.45-12.14,10-14.31l-3.17-2.41c-.22,28-4.42,55.73-10.63,83-3,13.18-6.47,26.26-10.58,39.14C643.18,73.62,640,87.86,632,97.35l3-.39c-5.61-2.73-11-5.81-16.8-8.24-5.45-2.31-10.9-4.38-16.1-7.26C592,75.82,582.6,68.83,572.57,62.93c-8.55-5-19.73-11.41-30-10.8-9.44.57-16.69,9.4-23.23,15.26C500.42,84.31,484,103.91,464.12,119.8c-2.22,1.77-4.7,3.32-6.83,5.2-3,2.65-5.66,6.48-10.21,3.69-3.09-1.88-4.81-6.12-6.64-9.07q-3-4.86-6.13-9.68c-7.71-12-15.74-23.75-23.66-35.59-17.77-26.56-35.46-53.19-51.92-80.59a2.53,2.53,0,0,0-4.57.6c-4.53,14.14-7.3,28.83-11.64,43.06s-8.74,29.69-16.87,42.35c-2.53,3.93-5.53,6.34-10.38,6.14-7.41-.32-15.19-3.39-22.3-5.33-15.43-4.2-30.76-8.76-46.12-13.22s-30.71-8.82-46.22-12.62c-14.74-3.62-29.78-5.76-44.52-9.28-13.91-3.33-27.41-9-41.87-9.56-14-.5-28.79,3.33-42.07,7.42A220.22,220.22,0,0,0,28.66,62.09C17,68.71,5,76.72-1.44,88.88-3,91.72,1.36,94.25,2.87,91.4Z"/><path class="cls-5" d="M879.3,74.6c-5.4-10.13-11-20.12-16.43-30.25a123.83,123.83,0,0,1-7-14.22c-1.46-3.83-2.86-7.52-5.56-10.68-1.57-1.85-4-.14-4.26,1.77-4.31,34.16-2.83,68.89-9.28,102.8l1.75-1.75a17.82,17.82,0,0,1-18.33-5A59.55,59.55,0,0,0,813.5,111l-10.17-7.6c-13.3-9.92-26.56-19.91-40-29.7a445,445,0,0,0-39.51-26.17C709.61,39.26,695,31.66,680.67,23.61,651.8,7.39,623-8.86,593.78-24.47L571.51-36.35c-3.38-1.8-7-3.39-10.28-5.47s-5.56-5.25-9.3-6.72a12.11,12.11,0,0,0-12.35,2.13c-4.43,3.55-1.53,12.67-.82,17.56,2.49,17.1,7.72,33.9,12.28,50.54,4.32,15.75,10.1,31.91,8,48.48L560.3,68c-6.72,3-16.68-4.81-21.7-8.39A224.61,224.61,0,0,1,516.47,41c-7-6.48-14.25-12.67-21.2-19.21C484.37,11.52,473.59,1,460.87-7c-2.5-1.58-4.84,1.87-3,3.92,13.39,15.2,29.48,28.28,44.4,41.94,4.8,4.39,9.7,8.67,14.26,13.31,2.85,2.92,11.06,10,9.79,14.8L530,65.48c-26.05-11.56-51.5-24.43-77.12-36.9-12.78-6.22-25.61-12.3-38.59-18.08-5.86-2.61-11.72-5.2-17.52-7.94-5.26-2.49-10.45-5.8-16-7.66-9-3-18.9,1.54-26.63,5.94C344.07,6.58,335,14,324.52,19c-24.9,11.8-51.74,11.22-78.33,6.56A361,361,0,0,1,202.38,14.7c-11.32-3.49-25.27-5.39-35-12.35l-1.92,4.57c44.06,10,86.25,26.48,127.71,44.23,2.87,1.22,5.42-2.72,2.52-4.32C267.26,31.09,239,15.09,210.49-.36,196.76-7.79,183.05-15.27,169-22.18q-5.08-2.51-10.22-4.94c-3.2-1.52-5.89-3.59-9-5.24a37,37,0,0,0-18.08-4.15c-1.71,0-3.36,2.18-2.16,3.76C150.23-5.6,172.65,20.15,193.3,47.3c19.37,25.47,35,53.71,56.06,77.91,1.84,2.12,4.48-.25,4.18-2.43C250.33,99.2,236.42,81,218.82,65.85c-10.7-9.2-22-17.72-33.15-26.36-5.55-4.31-11.14-8.55-16.55-13-4.81-4-9.67-7.87-15.66-9.9a2.52,2.52,0,0,0-2.82,3.67c16.17,25.83,38.78,46.47,58.84,69.14V85.82c.28-.3.39,0,0-.22-.81-.46-2-.61-2.88-1a63.8,63.8,0,0,1-8.8-5c-8.6-5.51-16.8-11.67-25-17.83-18.54-14-36.58-28.72-55.38-42.39-5.78-4.21-12.1-9.58-19-11.77a2.53,2.53,0,0,0-2.83,3.68,278.87,278.87,0,0,0,30.17,37.91c5.53,5.81,9.77,12.55,15.12,18.53a106.23,106.23,0,0,0,16.49,14.79c2.46,1.8,4.69-1.91,3-3.93-28.51-34.79-57.69-69-87.91-102.35-2.16-2.39-5.69,1.16-3.53,3.54,30.22,33.31,59.4,67.55,87.9,102.35l3-3.93a99.9,99.9,0,0,1-16.57-15.26c-4.92-5.68-8.84-11.83-14-17.28A271.31,271.31,0,0,1,99.9,8.75l-2.82,3.67c6.19,2,12,7,17.18,10.79,9.51,6.88,18.78,14.11,28.06,21.31,18,14,35.75,28.91,55.21,40.82,3.31,2,11.68,8.06,15.49,4a2.56,2.56,0,0,0,0-3.54C193.25,63.48,170.9,43.15,155,17.7l-2.83,3.67c6.37,2.16,11.38,6.93,16.47,11.14s10.55,8.19,15.81,12.29c10.37,8.07,20.91,16,30.87,24.59,17,14.66,30.33,31.9,33.44,54.72l4.18-2.43C231.74,97.33,216,68.83,196.46,43.25,176.13,16.66,154.17-8.63,133.9-35.28l-2.16,3.77c7.44-.12,13.59,2.06,19.76,6.07S165-18.66,171.6-15.33c13.43,6.75,26.61,14,39.82,21.16C238.79,20.7,265.89,36,293.12,51.15l2.52-4.32C253.79,28.91,211.22,12.25,166.73,2.1a2.51,2.51,0,0,0-1.92,4.57c8.14,5.79,18.48,7.35,27.86,10.2,13,4,26,8,39.29,10.91,24.2,5.33,49.86,8.92,74.27,3a105.6,105.6,0,0,0,31.56-13.46C347.48,11.12,357,3.11,368.27,0c6.21-1.73,10.36-.87,16,2q9.24,4.68,18.68,8.92c12.92,5.84,25.85,11.63,38.63,17.77,28.6,13.76,56.85,28.26,85.87,41.14a2.54,2.54,0,0,0,3.67-1.5c1.4-5.28-3-10.5-6.12-14.25-5-6-10.87-11.2-16.65-16.41-6.62-6-13-12.22-19.64-18.13-9.44-8.36-19-16.64-27.32-26.12l-3,3.92C475.92,8.39,490,24.24,505.58,37.78c8.27,7.18,16,14.92,24.59,21.71,7.54,5.94,18.6,15.24,29,13.9,1.89-.24,3.93-.69,4.77-2.56,1.66-3.7.61-10.51.22-14.42-1-10.13-3.78-19.95-6.54-29.71-5.94-21-13.22-42.69-14.92-64.51-.24-3.11-.47-5.4,3.12-6.33,3.13-.81,5.72.67,8.07,2.71,1.72,1.49,2.77,2.83,4.79,3.93,2.83,1.56,5.71,3,8.57,4.56q15.42,8.2,30.83,16.45c21.18,11.33,42.14,23,63.06,34.84,20.23,11.43,40.87,22.23,61,33.92,22.41,13,43,28.88,63.8,44.33,10.44,7.76,21.6,15.05,30.77,24.25a22.89,22.89,0,0,0,23.19,6.24,2.47,2.47,0,0,0,1.74-1.74c6.54-34.36,5.09-69.52,9.46-104.13L846.82,23c2.95,3.47,3.93,8.08,5.73,12.17,2,4.58,4.54,9,6.9,13.4,5.12,9.55,10.43,19,15.53,28.56,1.52,2.84,5.84.32,4.32-2.52Z"/></svg>